<?xml version="1.0" encoding="utf-8"?>
<!-- Generator: Adobe Illustrator 25.0.0, SVG Export Plug-In . SVG Version: 6.00 Build 0)  -->
<svg version="1.1" id="Livello_1" xmlns="http://www.w3.org/2000/svg" xmlns:xlink="http://www.w3.org/1999/xlink" x="0px" y="0px"
	 viewBox="0 0 384.2 107.9" style="enable-background:new 0 0 384.2 107.9;" xml:space="preserve">
<style type="text/css">
	.st0{fill:#FFFFFF;}
	.st1{fill:#7FC026;}
</style>
<path class="st0" d="M12.7,0c6.9,0,12.7,6,12.7,12.9c0,7-5.8,12.9-12.7,12.9C5.7,25.8,0,19.9,0,12.9S5.7,0,12.7,0 M1.5,41.9
	c0-6.7,3.9-12.2,10.9-12.2s11.1,5.5,11.1,12.2v52.4c0,6.8-3.9,12.3-11.1,12.3c-7,0-10.9-5.7-10.9-12.3V41.9z"/>
<path class="st0" d="M63.5,29.5c9.7,0,33.7,2.4,33.7,15.3c0,5.3-3,8.7-8.5,8.1C80.6,52,78.5,48.7,65,46.1c-4-0.8-11.8-0.7-12.4,5
	c-0.7,5.8,7.4,5.4,11.8,5.6c15.8,0.9,36.7,4.9,36.7,23.8c0,18.3-18.1,26.2-33.9,26.2c-11.3,0-36.5-5-36.5-19.7
	c0-5.4,3.4-9.2,8.9-9.2c9.2,0,13,10,26.7,10.6c4.3,0.2,12.1,0.1,12.8-5.1c2.2-14.7-48.4,0.8-48.4-30.8
	C30.5,34.8,48.3,29.5,63.5,29.5"/>
<path class="st1" d="M178.3,72.4l10.3-34.2c0.7-2.4,1.9-4.5,3.5-6.2c1.7-1.8,3.6-2.6,5.8-2.6c3.4,0,6.4,0.7,8.9,2.2
	c2.5,1.5,3.8,3.6,3.8,6.5c0,2.5-0.1,4.9-0.9,7.1L193.5,91c-1.7,4.7-3.6,8.5-5.8,11.3s-5.3,4.3-9.4,4.3c-5.8,0-10.1-3.9-12.8-11.7
	l-9.4-27.6L148.5,91c-1.6,4.8-3.3,8.7-5.5,11.5s-5.4,4.1-9.7,4.1c-3,0-5.7-1.1-7.8-3.4c-2.2-2.2-3.8-5-4.9-8.3l-17.7-50.1
	c-0.7-2.1-0.9-4.4-0.9-6.9c0-2.8,1.3-4.9,3.8-6.3s5.5-2.2,8.8-2.2c2.1,0,4,0.9,5.7,2.6c1.7,1.8,2.8,3.8,3.5,6l10.5,34.5l10.8-33.3
	c2.1-6.6,5.7-9.9,10.8-9.9c5.7,0,9.6,3.3,11.7,9.9L178.3,72.4z"/>
<path class="st1" d="M239.6,107.9c-15.4-5.8-26.3-20.7-26.3-38.1c0-22.5,18.2-40.7,40.7-40.7s40.7,18.2,40.7,40.7
	c0,5.2-1,10.2-2.8,14.7c0.4-2.4,0.1-4.9-1.2-7.1c-1.7-2.9-6.3-4.5-10.1-2.2c-6.3,3.7-1.7,11.5-13.5,18.5c-9.1,5.4-18,2.6-22.9-5.6
	L279.5,67c5.2-3.1,6-5.5,2.8-10.8c-7.6-12.9-25.5-19.5-43.5-8.8c-18.5,11.1-22.3,29.9-11.4,48C230.3,100.4,234.4,104.9,239.6,107.9
	 M238.1,76.6L264.5,61c-5.2-5.2-12.6-6.5-18.9-2.8C238.5,62.4,236.4,69,238.1,76.6"/>
<path class="st1" d="M384.2,67.6c0,6.1-1.5,12.2-4.5,18.3c-2.9,6-7.4,11-13.2,14.9c-5.8,3.8-12.8,5.8-20.9,5.8
	c-12.1,0-21.8-4-28.9-11.9S306.2,77.8,306,67.8l0,0V17.7c0-6.4,4.1-12,10.8-11.9c3.4,0.1,6,1.1,8,3.4s2.9,5.1,2.9,8.5v14.5
	c5.2-2.5,11.1-3.9,17.9-3.8c12.1,0.1,21.5,4.1,28.3,12.2C380.8,48.6,384.2,57.6,384.2,67.6 M332.7,80.5c3.4,3.8,8.1,5.7,13.9,5.7
	c3.9,0,7.2-0.9,10-2.8c2.8-1.8,4.9-4.2,6.3-7.1s2.1-5.8,2.1-8.8c0-4.8-1.6-9.1-4.9-13c-3.3-3.8-7.8-5.7-13.5-5.8
	c-12-0.1-19.1,9.6-19,18.8C327.6,72.3,329.3,76.6,332.7,80.5"/>
</svg>
