<?xml version="1.0" encoding="utf-8"?>
<!-- Generator: Adobe Illustrator 25.0.0, SVG Export Plug-In . SVG Version: 6.00 Build 0)  -->
<svg version="1.1" id="Livello_1" xmlns="http://www.w3.org/2000/svg" xmlns:xlink="http://www.w3.org/1999/xlink" x="0px" y="0px"
	 viewBox="0 0 63.9 60.2" style="enable-background:new 0 0 63.9 60.2;" xml:space="preserve">
<style type="text/css">
	.st0{fill:#3D3D3D;}
</style>
<g>
	<path class="st0" d="M4.6,13.6v5.6c-0.2,0.1-0.5,0.1-0.9,0.2c-0.4,0-0.8,0.1-1.2,0.1c-0.9,0-1.5-0.2-1.9-0.5
		C0.2,18.6,0,18.1,0,17.3V3.1c0-0.4,0.1-0.7,0.3-0.9C0.5,2,0.8,1.9,1.2,1.7c0.3-0.1,0.7-0.2,1.1-0.3c0.4-0.1,0.8-0.1,1.2-0.2
		c0.4-0.1,0.8-0.1,1.3-0.1c0.4,0,0.8,0,1.2,0c2.6,0,4.6,0.6,6,1.7c1.4,1.1,2,2.6,2,4.6c0,0.9-0.2,1.8-0.5,2.5s-0.8,1.4-1.5,2
		s-1.4,1-2.3,1.3c-0.9,0.3-2,0.4-3.1,0.4H4.6z M6.2,10c1,0,1.7-0.2,2.3-0.7s0.8-1.1,0.8-2c0-1.7-1-2.6-3.1-2.6c-0.3,0-0.7,0-0.9,0
		c-0.3,0-0.5,0-0.8,0.1V10H6.2z"/>
	<path class="st0" d="M19.7,14.1c0.3,0.8,0.7,1.4,1.4,1.7c0.7,0.3,1.5,0.5,2.4,0.5c0.8,0,1.6-0.1,2.3-0.3c0.7-0.2,1.3-0.5,1.7-0.7
		c0.3,0.2,0.5,0.4,0.7,0.8c0.2,0.3,0.3,0.7,0.3,1c0,0.4-0.1,0.8-0.4,1.2s-0.6,0.6-1.1,0.8c-0.5,0.2-1,0.4-1.7,0.5
		c-0.7,0.1-1.4,0.2-2.1,0.2c-1.1,0-2.2-0.2-3.2-0.5c-1-0.3-1.8-0.8-2.5-1.4c-0.7-0.6-1.2-1.4-1.6-2.4c-0.4-1-0.6-2.1-0.6-3.3
		c0-1.2,0.2-2.3,0.6-3.2c0.4-0.9,0.9-1.7,1.6-2.3c0.7-0.6,1.4-1,2.3-1.3c0.9-0.3,1.8-0.4,2.7-0.4c1,0,1.9,0.2,2.7,0.5
		c0.8,0.3,1.5,0.7,2.1,1.3c0.6,0.5,1.1,1.2,1.4,2c0.3,0.8,0.5,1.6,0.5,2.5c0,0.6-0.2,1.1-0.5,1.4c-0.3,0.3-0.8,0.5-1.4,0.6
		L19.7,14.1z M22.5,8.1c-0.8,0-1.5,0.3-2.1,0.8c-0.6,0.5-0.9,1.3-1,2.2l5.6-0.9c0-0.5-0.3-1-0.7-1.4C23.9,8.3,23.3,8.1,22.5,8.1z"/>
	<path class="st0" d="M36.2,19.2c-0.2,0.1-0.5,0.1-0.8,0.2c-0.3,0-0.7,0.1-1.2,0.1c-0.9,0-1.5-0.1-1.9-0.4c-0.4-0.3-0.6-0.8-0.6-1.6
		V8.5c0-0.5,0.1-1,0.4-1.4c0.3-0.4,0.6-0.7,1.1-1c0.6-0.4,1.4-0.7,2.3-0.9c0.9-0.2,1.8-0.3,2.8-0.3c2,0,3,0.7,3,2
		c0,0.3,0,0.6-0.1,0.9C41.2,8,41.1,8.2,41,8.4c-0.4-0.1-1-0.1-1.6-0.1c-0.6,0-1.1,0.1-1.7,0.2c-0.6,0.1-1.1,0.3-1.5,0.6V19.2z"/>
	<path class="st0" d="M46.2,19.4c-0.9,0-1.5-0.1-1.9-0.4c-0.4-0.3-0.6-0.8-0.6-1.6V0.3c0.2-0.1,0.5-0.1,0.8-0.2
		C44.9,0,45.3,0,45.7,0c0.9,0,1.5,0.1,1.9,0.4c0.4,0.3,0.6,0.8,0.6,1.7v17.1c-0.2,0.1-0.5,0.1-0.8,0.2C47,19.4,46.6,19.4,46.2,19.4z
		"/>
	<path class="st0" d="M57.3,4.8c1,0,1.9,0.1,2.8,0.3c0.8,0.2,1.5,0.5,2.1,0.9s1,1,1.4,1.6c0.3,0.7,0.5,1.4,0.5,2.3v6.6
		c0,0.5-0.1,0.9-0.4,1.2c-0.3,0.3-0.6,0.6-0.9,0.8c-0.6,0.4-1.3,0.7-2.2,0.8c-0.9,0.2-1.9,0.3-3,0.3c-2,0-3.6-0.4-4.8-1.1
		c-1.2-0.8-1.8-1.9-1.8-3.5c0-1.3,0.4-2.4,1.2-3.1c0.8-0.7,2-1.1,3.7-1.3l3.9-0.4V9.9c0-0.6-0.3-1.1-0.8-1.4
		c-0.5-0.3-1.2-0.4-2.2-0.4c-0.7,0-1.5,0.1-2.2,0.3c-0.7,0.2-1.3,0.4-1.9,0.6c-0.2-0.2-0.4-0.4-0.6-0.7s-0.2-0.7-0.2-1
		c0-0.9,0.4-1.5,1.3-1.8c0.6-0.2,1.2-0.4,2-0.5S56.5,4.8,57.3,4.8z M57.4,16.4c0.4,0,0.8,0,1.3-0.1c0.4-0.1,0.7-0.2,0.9-0.3v-2.7
		l-2.4,0.2c-0.6,0.1-1.1,0.2-1.5,0.4c-0.4,0.2-0.6,0.6-0.6,1c0,0.5,0.2,0.8,0.5,1.1C56.1,16.3,56.6,16.4,57.4,16.4z"/>
	<g>
		<path class="st0" d="M9.5,48.3v11.3c-0.4,0.1-1,0.2-1.8,0.3C6.9,60,6,60,5.2,60c-1.8,0-3.1-0.3-3.8-0.9c-0.7-0.6-1.1-1.8-1.1-3.4
			V27.3c0-0.8,0.2-1.4,0.6-1.8c0.4-0.4,1-0.8,1.8-1C3.3,24.2,4,24,4.8,23.9c0.8-0.2,1.6-0.3,2.5-0.4c0.8-0.1,1.7-0.2,2.5-0.2
			c0.8,0,1.6-0.1,2.4-0.1c5.3,0,9.3,1.1,12.1,3.4c2.7,2.2,4.1,5.3,4.1,9.2c0,1.9-0.3,3.6-1,5.1c-0.7,1.5-1.7,2.9-3,4
			c-1.3,1.1-2.9,1.9-4.7,2.5c-1.9,0.6-4,0.9-6.3,0.9H9.5z M12.7,41c1.9,0,3.4-0.4,4.6-1.3c1.1-0.9,1.7-2.2,1.7-4
			c0-3.5-2.1-5.2-6.2-5.2c-0.7,0-1.3,0-1.8,0.1c-0.5,0-1,0.1-1.6,0.2V41H12.7z"/>
		<path class="st0" d="M52.2,51.8H40.7c-0.4,1.4-0.8,2.8-1.2,4.2c-0.4,1.4-0.7,2.6-1,3.6c-0.5,0.2-1,0.3-1.6,0.4
			c-0.5,0.1-1.2,0.2-2,0.2c-1.7,0-3-0.3-3.9-0.9c-0.9-0.6-1.3-1.5-1.3-2.6c0-0.5,0.1-1.1,0.2-1.6c0.2-0.5,0.3-1.1,0.5-1.8
			c0.3-1.1,0.7-2.4,1.2-3.9c0.5-1.6,1.1-3.3,1.7-5.1c0.6-1.8,1.2-3.7,1.9-5.6c0.7-1.9,1.3-3.7,1.9-5.5c0.6-1.7,1.2-3.3,1.7-4.8
			s0.9-2.6,1.3-3.5c0.6-0.4,1.5-0.7,2.7-1c1.2-0.3,2.5-0.5,3.7-0.5c1.8,0,3.3,0.2,4.7,0.7c1.3,0.5,2.2,1.3,2.6,2.4
			c0.7,2.1,1.5,4.5,2.4,7.2c0.9,2.7,1.7,5.6,2.6,8.4c0.9,2.9,1.7,5.7,2.6,8.6c0.8,2.8,1.5,5.3,2.2,7.6c-0.4,0.5-1.1,0.9-1.9,1.2
			c-0.8,0.3-1.8,0.5-3,0.5c-1.7,0-2.9-0.3-3.5-0.9c-0.7-0.6-1.2-1.5-1.5-2.8L52.2,51.8z M46.5,31.8c-0.5,1.8-1.2,3.8-2,6
			c-0.8,2.2-1.6,4.5-2.3,6.9h8.4c-0.7-2.5-1.3-4.8-2-7.1c-0.7-2.2-1.3-4.2-1.7-5.8H46.5z"/>
	</g>
</g>
</svg>
