<?xml version="1.0" encoding="utf-8"?>
<!-- Generator: Adobe Illustrator 24.2.0, SVG Export Plug-In . SVG Version: 6.00 Build 0)  -->
<svg version="1.1" id="Livello_1" xmlns="http://www.w3.org/2000/svg" xmlns:xlink="http://www.w3.org/1999/xlink" x="0px" y="0px"
	 viewBox="0 0 15 5.3" style="enable-background:new 0 0 15 5.3;" xml:space="preserve">
<style type="text/css">
	.st0{fill:#3D3D3D;}
</style>
<g>
	<path class="st0" d="M0.9,5.2C0.5,5.1,0.2,4.9,0,4.7l0.4-0.9C0.6,4,0.9,4.1,1.2,4.2s0.6,0.1,0.9,0.1s0.6,0,0.8-0.2
		C3,4.1,3.1,4,3.1,3.8c0-0.1,0-0.2-0.1-0.3S2.7,3.4,2.6,3.3C2.4,3.3,2.2,3.2,2,3.2C1.6,3.1,1.3,3,1,2.9C0.8,2.8,0.6,2.6,0.4,2.4
		C0.2,2.2,0.1,2,0.1,1.6c0-0.3,0.1-0.6,0.2-0.8C0.5,0.6,0.7,0.4,1,0.2C1.4,0.1,1.8,0,2.3,0c0.3,0,0.7,0,1,0.1s0.6,0.2,0.8,0.3
		l-0.4,1C3.2,1.1,2.7,1,2.3,1S1.7,1,1.5,1.1C1.4,1.2,1.3,1.4,1.3,1.5s0.1,0.3,0.3,0.4S2,2.1,2.4,2.2c0.4,0.1,0.7,0.2,1,0.3
		C3.6,2.6,3.8,2.7,4,2.9c0.2,0.2,0.3,0.5,0.3,0.8S4.2,4.3,4,4.5C3.9,4.8,3.6,5,3.3,5.1C3,5.3,2.6,5.3,2.1,5.3
		C1.7,5.3,1.3,5.3,0.9,5.2z"/>
	<path class="st0" d="M6.2,5c-0.4-0.2-0.8-0.5-1-1C4.9,3.6,4.8,3.2,4.8,2.7s0.1-1,0.4-1.4c0.2-0.4,0.6-0.7,1-1C6.6,0.1,7.1,0,7.6,0
		C8,0,8.4,0.1,8.8,0.2c0.4,0.2,0.7,0.4,0.9,0.7L9,1.6C8.6,1.2,8.2,1,7.7,1C7.3,1,7,1.1,6.8,1.2C6.5,1.4,6.3,1.6,6.2,1.8
		C6.1,2.1,6,2.4,6,2.7s0.1,0.6,0.2,0.9C6.3,3.8,6.5,4,6.8,4.1C7,4.3,7.3,4.3,7.7,4.3c0.5,0,0.9-0.2,1.3-0.6l0.8,0.7
		c-0.3,0.3-0.6,0.5-1,0.7S8,5.3,7.6,5.3C7.1,5.3,6.6,5.2,6.2,5z"/>
	<path class="st0" d="M13.9,0.3c0.3,0.2,0.6,0.4,0.8,0.6C14.9,1.2,15,1.6,15,2s-0.1,0.7-0.3,1s-0.4,0.5-0.8,0.6
		c-0.3,0.1-0.7,0.2-1.2,0.2h-1v1.4h-1.2V0.1h2.2C13.2,0.1,13.6,0.2,13.9,0.3z M13.5,2.6c0.2-0.2,0.3-0.4,0.3-0.7s-0.1-0.5-0.3-0.7
		S13,1.1,12.7,1.1h-1v1.8h1C13,2.9,13.3,2.8,13.5,2.6z"/>
</g>
</svg>
